<?xml version="1.0" encoding="utf-8"?>
<!-- Generator: Adobe Illustrator 16.0.3, SVG Export Plug-In . SVG Version: 6.00 Build 0)  -->
<!DOCTYPE svg PUBLIC "-//W3C//DTD SVG 1.1//EN" "http://www.w3.org/Graphics/SVG/1.1/DTD/svg11.dtd">
<svg version="1.1" id="Layer_1" xmlns="http://www.w3.org/2000/svg" xmlns:xlink="http://www.w3.org/1999/xlink" x="0px" y="0px"
	 width="50px" height="50px" viewBox="0 0 50 50" enable-background="new 0 0 50 50" xml:space="preserve">
<g>
	<path fill="#FFFFFF" d="M23.811,44.167l-0.159-0.004l-0.136-0.011l-0.271-0.021c-0.183-0.016-0.356-0.021-0.547-0.045l-0.57-0.069
		l0.57,0.07c0.19,0.023,0.364,0.028,0.547,0.044l0.271,0.021l0.136,0.012l0.159,0.005l0.641,0.016l0.159,0.009l-0.159-0.012
		L23.811,44.167z"/>
	<path fill="#FFFFFF" d="M21.723,8.845c0.353,0.662,0.78,1.261,1.267,1.793c1.012,1.105,2.281,1.917,3.667,2.385
		c0.188-0.46,0.338-0.937,0.446-1.423c0.233-1.056,0.272-2.16,0.099-3.257c-0.121-0.771-0.347-1.537-0.688-2.281
		c-1.049-2.292-2.961-3.914-5.174-4.66c-0.882,2.163-0.906,4.67,0.143,6.962C21.558,8.527,21.639,8.688,21.723,8.845z"/>
	<path fill="#FFFFFF" d="M46.139,27.024c-0.002-0.18-0.032-1.501-0.047-1.688c-0.03-0.375-0.057-0.746-0.123-1.11
		c-0.056-0.364-0.117-0.725-0.174-1.083c-0.061-0.356-0.158-0.703-0.233-1.049c-0.04-0.172-0.081-0.344-0.12-0.515
		c-0.038-0.171-0.101-0.336-0.148-0.502c-0.104-0.331-0.208-0.658-0.311-0.982c-0.911-2.562-2.231-4.688-3.621-6.345
		c-1.394-1.66-2.86-2.853-4.135-3.693c-0.159-0.106-0.307-0.218-0.463-0.309c-0.155-0.091-0.307-0.18-0.453-0.266
		c-0.296-0.167-0.562-0.334-0.829-0.465c-0.267-0.128-0.513-0.248-0.738-0.356c-0.226-0.107-0.425-0.213-0.614-0.281
		C33.38,8.087,32.98,7.932,32.98,7.932s0.363,0.228,1.044,0.655c0.176,0.1,0.352,0.238,0.551,0.378
		c0.197,0.142,0.413,0.297,0.645,0.465s0.462,0.379,0.718,0.583c0.127,0.104,0.257,0.211,0.392,0.321
		c0.136,0.109,0.26,0.24,0.396,0.363c1.084,0.987,2.294,2.299,3.378,3.988c1.082,1.684,2.047,3.738,2.625,6.082
		c0.061,0.295,0.123,0.593,0.185,0.895c0.029,0.15,0.071,0.299,0.091,0.453c0.021,0.154,0.042,0.308,0.062,0.463
		c0.038,0.31,0.096,0.619,0.12,0.936c0.02,0.316,0.039,0.635,0.06,0.958c0.032,0.32-0.02,2.665-0.03,2.743l-0.043,0.24
		c-0.041,0.319-0.079,0.637-0.145,0.977c-0.223,1.337-0.578,2.686-1.103,3.996c-0.53,1.309-1.21,2.584-2.043,3.781
		c-0.099,0.153-0.212,0.296-0.323,0.442l-0.329,0.438l-0.354,0.424L38.7,37.726c-0.06,0.07-0.124,0.138-0.185,0.206l-0.37,0.412
		c-0.126,0.137-0.26,0.264-0.39,0.397c-0.255,0.27-0.536,0.514-0.811,0.768c-0.134,0.13-0.284,0.242-0.426,0.363
		c-0.146,0.118-0.283,0.244-0.434,0.356c-0.302,0.223-0.594,0.459-0.91,0.664c-0.612,0.438-1.267,0.815-1.93,1.183
		c-0.358,0.186-0.723,0.358-1.092,0.522c0.528-0.421,1.04-0.876,1.53-1.365c1.452-1.453,2.604-3.093,3.456-4.841
		c1.734-3.561,2.224-7.573,1.469-11.39c-4.31-1.01-8.918-0.415-12.872,1.789c-0.305-0.361-0.621-0.714-0.962-1.054
		c-4.018-4.019-9.614-5.495-14.794-4.436c-1.059,5.18,0.417,10.776,4.437,14.794c0.808,0.808,1.68,1.512,2.599,2.114
		c-0.329,1.342-0.5,2.715-0.517,4.089c-0.285-0.139-0.566-0.284-0.84-0.441c-1.324-0.735-2.543-1.636-3.638-2.649
		c-1.1-1.009-2.039-2.163-2.854-3.369c-0.818-1.207-1.443-2.511-1.944-3.828c-0.496-1.32-0.828-2.675-1.012-4.019
		C6.176,27.654,6.125,27.32,6.1,26.985c-0.011-0.168-0.022-0.334-0.034-0.501L6.05,26.235c0,0-0.003-2.077,0.007-2.231
		c0.01-0.155,0.037-0.31,0.046-0.463c0.006-0.078,0.016-0.154,0.024-0.231l0.038-0.236c0.044-0.314,0.09-0.626,0.133-0.935
		c0.018-0.156,0.052-0.307,0.087-0.458c0.033-0.151,0.066-0.302,0.099-0.452c0.032-0.15,0.065-0.299,0.097-0.448
		c0.027-0.151,0.069-0.296,0.113-0.44c0.532-1.956,1.324-3.703,2.229-5.195c0.173-0.284,0.348-0.562,0.527-0.828
		c0.316-0.462,0.64-0.893,0.966-1.298c0.844-1.049,1.707-1.917,2.508-2.606c0.265-0.256,0.548-0.458,0.804-0.664
		c0.129-0.103,0.254-0.202,0.374-0.298c0.061-0.048,0.12-0.096,0.178-0.143c0.059-0.045,0.121-0.084,0.18-0.125
		c0.237-0.163,0.457-0.314,0.658-0.453c0.202-0.138,0.383-0.27,0.559-0.364c0.688-0.411,1.057-0.63,1.057-0.63
		s-0.101,0.036-0.296,0.106c-0.195,0.07-0.487,0.171-0.866,0.314c-0.193,0.064-0.396,0.162-0.622,0.265
		c-0.227,0.104-0.475,0.217-0.743,0.339c-0.066,0.031-0.136,0.06-0.205,0.095c-0.067,0.037-0.135,0.074-0.205,0.112
		c-0.139,0.076-0.282,0.155-0.431,0.237c-0.294,0.168-0.619,0.332-0.931,0.55c-0.772,0.477-1.609,1.084-2.464,1.837
		c-0.584,0.514-1.177,1.097-1.763,1.753c-1.433,1.623-2.791,3.723-3.765,6.263c-0.139,0.312-0.225,0.644-0.334,0.974
		c-0.052,0.166-0.104,0.333-0.157,0.5c-0.054,0.167-0.107,0.336-0.143,0.509c-0.082,0.346-0.164,0.694-0.246,1.046l-0.062,0.266
		c-0.019,0.09-0.031,0.184-0.046,0.277c-0.029,0.187-0.058,0.373-0.087,0.562c-0.029,0.188-0.057,0.378-0.086,0.568l-0.041,0.285
		l-0.02,0.262c-0.027,0.35-0.054,0.703-0.081,1.059l-0.01,0.134c0,0,0.057,1.842,0.069,2.236c0.199,3.15,1.126,6.475,2.924,9.472
		c0.893,1.499,1.972,2.922,3.254,4.189l0.478,0.475l0.502,0.455c0.331,0.309,0.691,0.581,1.042,0.87
		c0.002,0.002,0.003,0.003,0.005,0.006c0.73,0.548,1.484,1.077,2.286,1.536c1.589,0.939,3.318,1.682,5.125,2.178
		c0.112,0.031,0.225,0.065,0.338,0.095l0.342,0.081l0.685,0.159l0.693,0.128c0.231,0.043,0.462,0.084,0.695,0.11l0.699,0.092
		c0.233,0.029,0.486,0.043,0.729,0.063l0.368,0.028l0.184,0.013l0.161,0.005l0.641,0.018l0.159,0.004l0.132,0.002l0.089-0.002
		l0.351-0.01l0.704-0.021l0.703-0.055c0.234-0.018,0.468-0.037,0.7-0.07l0.698-0.092c0.233-0.031,0.463-0.08,0.694-0.119
		c0.462-0.076,0.918-0.188,1.374-0.297c0.229-0.049,0.452-0.12,0.678-0.184c0.225-0.066,0.45-0.124,0.672-0.199
		c0.44-0.157,0.886-0.297,1.314-0.48c0.215-0.088,0.433-0.174,0.646-0.265l0.632-0.293l0.314-0.147l0.308-0.161l0.614-0.322
		c3.23-1.798,5.912-4.396,7.761-7.354c0.922-1.48,1.669-3.034,2.187-4.624c0.516-1.59,0.849-3.196,0.98-4.771
		c0.042-0.387,0.054-0.798,0.07-1.198L46.14,27.3C46.144,27.198,46.139,27.117,46.139,27.024z M24.452,44.185l-0.641-0.016
		l-0.159-0.005l-0.136-0.012l-0.271-0.021c-0.183-0.016-0.356-0.021-0.547-0.044l-0.57-0.07l0.57,0.069
		c0.19,0.024,0.364,0.029,0.547,0.045l0.271,0.021l0.136,0.011l0.159,0.004l0.641,0.015l0.159,0.012L24.452,44.185z"/>
</g>
</svg>
