<?xml version="1.0" encoding="utf-8"?>
<!-- Generator: Adobe Illustrator 16.0.3, SVG Export Plug-In . SVG Version: 6.00 Build 0)  -->
<!DOCTYPE svg PUBLIC "-//W3C//DTD SVG 1.1//EN" "http://www.w3.org/Graphics/SVG/1.1/DTD/svg11.dtd">
<svg version="1.1" id="Layer_1" xmlns="http://www.w3.org/2000/svg" xmlns:xlink="http://www.w3.org/1999/xlink" x="0px" y="0px"
	 width="50px" height="50px" viewBox="0 0 50 50" enable-background="new 0 0 50 50" xml:space="preserve">
<g>
	<path fill="#FFFFFF" d="M23.978,44.23l-0.158-0.003l-0.135-0.013l-0.27-0.019c-0.182-0.017-0.355-0.021-0.545-0.045L22.3,44.082
		l0.569,0.069c0.189,0.023,0.363,0.028,0.545,0.045l0.27,0.021l0.135,0.011L23.978,44.23l0.639,0.018l0.159,0.009l-0.159-0.012
		L23.978,44.23z"/>
	<path fill="#FFFFFF" d="M21.895,9.002c0.352,0.66,0.778,1.257,1.264,1.789c1.009,1.102,2.274,1.912,3.657,2.378
		c0.188-0.46,0.337-0.934,0.444-1.42c0.233-1.053,0.271-2.154,0.1-3.249c-0.122-0.768-0.346-1.533-0.687-2.275
		c-1.046-2.286-2.953-3.903-5.161-4.647c-0.879,2.157-0.902,4.658,0.144,6.943C21.73,8.685,21.811,8.845,21.895,9.002z"/>
	<path fill="#FFFFFF" d="M46.246,27.134c-0.003-0.18-0.123-0.358-0.126-0.536L46,26.331c0-0.002,0-0.091,0-0.07l0.114-0.036
		l0.054-0.071l0.019-0.141c-0.012-0.188-0.012-0.376-0.025-0.563c-0.031-0.373-0.036-0.744-0.103-1.107
		c-0.057-0.363-0.109-0.723-0.166-1.08c-0.061-0.355-0.151-0.702-0.227-1.047c-0.04-0.172-0.078-0.344-0.118-0.514
		c-0.039-0.171-0.1-0.335-0.147-0.501c-0.104-0.33-0.205-0.656-0.307-0.979c-0.91-2.556-2.227-4.677-3.612-6.329
		c-1.39-1.656-2.853-2.846-4.123-3.683c-0.159-0.105-0.307-0.217-0.462-0.307c-0.156-0.091-0.306-0.18-0.453-0.266
		c-0.295-0.166-0.562-0.333-0.827-0.464c-0.266-0.128-0.511-0.247-0.734-0.355c-0.227-0.106-0.425-0.213-0.613-0.281
		c-0.747-0.291-1.146-0.445-1.146-0.445s0.362,0.227,1.042,0.653c0.176,0.099,0.351,0.237,0.55,0.377
		c0.195,0.142,0.411,0.297,0.643,0.464c0.23,0.167,0.46,0.377,0.716,0.582c0.126,0.103,0.257,0.21,0.391,0.32
		c0.135,0.108,0.26,0.239,0.395,0.362c1.08,0.984,2.288,2.292,3.369,3.977c1.078,1.68,2.04,3.728,2.616,6.066
		c0.062,0.294,0.124,0.591,0.186,0.892c0.028,0.15,0.071,0.298,0.09,0.452c0.021,0.153,0.043,0.307,0.063,0.461
		c0.037,0.31,0.095,0.618,0.119,0.934c0.019,0.315-0.147,0.634-0.127,0.955C43.207,24.906,43,25.232,43,25.558
		c0,0.163,0,0.327,0,0.49v0.211l0.168,0.266c-0.012,0.177,0.07,0.355,0.059,0.535c-0.008,0.086,0.038,0.184,0.028,0.263
		l-0.007,0.239c-0.04,0.319-0.059,0.636-0.124,0.974c-0.221,1.334-0.568,2.679-1.091,3.987c-0.528,1.304-1.202,2.576-2.032,3.77
		c-0.1,0.153-0.209,0.296-0.318,0.441l-0.33,0.438l-0.351,0.424l-0.176,0.212c-0.059,0.07-0.121,0.137-0.184,0.205l-0.37,0.411
		c-0.124,0.137-0.258,0.265-0.388,0.396c-0.254,0.269-0.534,0.513-0.808,0.767c-0.134,0.129-0.283,0.24-0.425,0.362
		c-0.146,0.117-0.283,0.243-0.434,0.354c-0.3,0.222-0.591,0.457-0.907,0.662c-0.609,0.437-1.263,0.813-1.924,1.179
		c-0.356,0.185-0.72,0.358-1.09,0.521c0.528-0.42,1.038-0.873,1.526-1.361c1.449-1.449,2.599-3.084,3.448-4.829
		c1.729-3.55,2.217-7.553,1.464-11.359c-4.298-1.007-8.895-0.414-12.839,1.784c-0.302-0.359-0.619-0.712-0.958-1.05
		c-4.007-4.008-9.588-5.481-14.754-4.425C9.128,26.59,10.602,32.172,14.61,36.18c0.805,0.806,1.675,1.508,2.592,2.108
		c-0.329,1.339-0.5,2.708-0.516,4.078c-0.284-0.14-0.564-0.283-0.837-0.439c-1.321-0.734-2.538-1.632-3.629-2.643
		c-1.098-1.007-2.034-2.157-2.847-3.36c-0.816-1.204-1.439-2.503-1.94-3.817c-0.494-1.318-0.826-2.668-1.008-4.009
		c-0.036-0.336-0.087-0.67-0.11-1.003c-0.011-0.167-0.022-0.334-0.034-0.5l-0.017-0.248l0.369-0.031C6.632,26.33,7,26.24,7,26.34
		v-0.066V26.14c0-0.355-0.371-0.709-0.371-1.06l-0.187-0.262l-0.076-0.234c0.01-0.155-0.025-0.31-0.014-0.463
		c0.009-0.155-0.004-0.309,0.005-0.462c0.005-0.077-0.004-0.154,0.004-0.231l0.027-0.235c0.044-0.313,0.084-0.625,0.128-0.933
		c0.016-0.155,0.05-0.306,0.084-0.457c0.033-0.15,0.064-0.301,0.097-0.45c0.033-0.15,0.064-0.299,0.096-0.447
		c0.026-0.151,0.069-0.296,0.112-0.439c0.531-1.951,1.321-3.693,2.224-5.181c0.172-0.283,0.347-0.561,0.526-0.825
		c0.315-0.461,0.639-0.89,0.964-1.295c0.842-1.046,1.701-1.912,2.501-2.599c0.264-0.256,0.546-0.457,0.802-0.662
		c0.128-0.103,0.252-0.202,0.373-0.298c0.061-0.048,0.12-0.096,0.178-0.142c0.059-0.044,0.121-0.084,0.18-0.125
		c0.237-0.163,0.456-0.313,0.656-0.451c0.201-0.138,0.382-0.269,0.557-0.364c0.688-0.409,1.054-0.628,1.054-0.628
		s-0.101,0.037-0.295,0.106s-0.486,0.17-0.864,0.313c-0.192,0.065-0.394,0.162-0.62,0.265c-0.227,0.104-0.474,0.216-0.741,0.338
		c-0.067,0.031-0.136,0.06-0.204,0.095c-0.067,0.036-0.134,0.073-0.203,0.111c-0.139,0.076-0.282,0.155-0.431,0.236
		c-0.292,0.168-0.617,0.331-0.929,0.549c-0.77,0.477-1.604,1.083-2.458,1.833c-0.583,0.513-1.173,1.094-1.758,1.749
		c-1.428,1.618-2.783,3.713-3.754,6.246C4.524,20.05,4.438,20.381,4.33,20.71c-0.052,0.166-0.105,0.332-0.158,0.498
		c-0.053,0.167-0.107,0.335-0.143,0.508c-0.082,0.345-0.163,0.692-0.246,1.044l-0.062,0.265c-0.019,0.09-0.031,0.185-0.046,0.276
		c-0.029,0.186-0.058,0.372-0.087,0.56c-0.029,0.188-0.057,0.377-0.086,0.566l-0.041,0.285l-0.02,0.262
		c-0.027,0.349-0.054,0.701-0.081,1.055l0.316,0.133L4,26.229v0.095v0.032l-0.332,0.287c-0.001,0.193-0.167,0.385-0.169,0.579
		c-0.001,0.388-0.056,0.778-0.043,1.172c0.199,3.142,1.104,6.456,2.898,9.444c0.891,1.496,1.958,2.915,3.238,4.179l0.471,0.476
		l0.499,0.452c0.33,0.308,0.688,0.581,1.038,0.869c0.001,0.001,0.002,0.003,0.004,0.004c0.728,0.547,1.479,1.075,2.279,1.533
		c1.585,0.937,3.309,1.678,5.111,2.172c0.113,0.031,0.225,0.065,0.338,0.095l0.341,0.08l0.684,0.159l0.69,0.128
		c0.23,0.043,0.461,0.085,0.693,0.111l0.697,0.091c0.232,0.029,0.485,0.041,0.727,0.062l0.366,0.027l0.183,0.014l0.161,0.006
		l0.638,0.017l0.16,0.003l0.131,0.003l0.088-0.003l0.351-0.009l0.702-0.021l0.7-0.056c0.235-0.018,0.468-0.037,0.7-0.071l0.696-0.09
		c0.231-0.031,0.462-0.081,0.691-0.119c0.462-0.076,0.916-0.188,1.371-0.296c0.229-0.049,0.451-0.121,0.675-0.183
		c0.225-0.066,0.45-0.124,0.672-0.2c0.438-0.156,0.883-0.296,1.31-0.479c0.215-0.089,0.432-0.173,0.645-0.264l0.631-0.293
		l0.313-0.146l0.307-0.16l0.612-0.321c3.222-1.794,5.896-4.385,7.74-7.335c0.919-1.478,1.665-3.027,2.182-4.613
		c0.514-1.586,0.845-3.187,0.977-4.758c0.043-0.386,0.054-0.796,0.07-1.196l0.012-0.299C46.251,27.308,46.246,27.226,46.246,27.134z
		 M24.616,44.248l-0.639-0.017l-0.158-0.004l-0.135-0.011l-0.27-0.021c-0.182-0.017-0.355-0.021-0.545-0.045L22.3,44.082
		l0.569,0.069c0.189,0.023,0.363,0.028,0.545,0.045l0.27,0.019l0.135,0.013l0.158,0.003l0.639,0.015l0.159,0.012L24.616,44.248z"/>
</g>
</svg>
